HIERARCHY
ROOT Hips
{
	OFFSET -14.64140 90.27770 -84.91600
	CHANNELS 6 Xposition Yposition Zposition Zrotation Xrotation Yrotation
	JOINT Spine
	{
		OFFSET 0.00000 13.20850 -1.60436
		CHANNELS 3 Zrotation Xrotation Yrotation
		JOINT Spine1
		{
			OFFSET 0.00000 8.61716 0.00000
			CHANNELS 3 Zrotation Xrotation Yrotation
			JOINT Spine2
			{
				OFFSET 0.00000 8.61717 0.00000
				CHANNELS 3 Zrotation Xrotation Yrotation
				JOINT Spine3
				{
					OFFSET 0.00000 8.61717 0.00000
					CHANNELS 3 Zrotation Xrotation Yrotation
					JOINT Neck
					{
						OFFSET 0.00000 11.07920 1.10792
						CHANNELS 3 Zrotation Xrotation Yrotation
						JOINT Neck1
						{
							OFFSET 0.00000 7.08032 0.00000
							CHANNELS 3 Zrotation Xrotation Yrotation
							JOINT Head
							{
								OFFSET 0.00000 7.08031 0.00000
								CHANNELS 3 Zrotation Xrotation Yrotation
								End site
								{
									OFFSET 0.00000 0.00000 0.00000
								}
							}
						}
					}
					JOINT RightShoulder
					{
						OFFSET -0.01000 7.91373 5.19711
						CHANNELS 3 Zrotation Xrotation Yrotation
						JOINT RightArm
						{
							OFFSET -18.41580 0.00000 0.00000
							CHANNELS 3 Zrotation Xrotation Yrotation
							JOINT RightForeArm
							{
								OFFSET -29.11090 0.00000 0.00000
								CHANNELS 3 Zrotation Xrotation Yrotation
								JOINT RightHand
								{
									OFFSET -24.65040 0.00000 0.00000
									CHANNELS 3 Zrotation Xrotation Yrotation
									JOINT RightHandThumb1
									{
										OFFSET -5.35114 -0.85590 3.97906
										CHANNELS 3 Zrotation Xrotation Yrotation
										JOINT RightHandThumb2
										{
											OFFSET -4.52789 0.00000 0.00000
											CHANNELS 3 Zrotation Xrotation Yrotation
											JOINT RightHandThumb3
											{
												OFFSET -2.46976 0.00000 0.00000
												CHANNELS 3 Zrotation Xrotation Yrotation
												End site
												{
													OFFSET 0.00000 0.00000 0.00000
												}
											}
										}
									}
									JOINT RightHandIndex1
									{
										OFFSET -14.26970 0.00000 2.88139
										CHANNELS 3 Zrotation Xrotation Yrotation
										JOINT RightHandIndex2
										{
											OFFSET -5.48836 0.00000 0.00000
											CHANNELS 3 Zrotation Xrotation Yrotation
											JOINT RightHandIndex3
											{
												OFFSET -3.01859 0.00000 0.00000
												CHANNELS 3 Zrotation Xrotation Yrotation
												End site
												{
													OFFSET 0.00000 0.00000 0.00000
												}
											}
										}
									}
									JOINT RightHandMiddle1
									{
										OFFSET -14.26970 0.00000 -0.09147
										CHANNELS 3 Zrotation Xrotation Yrotation
										JOINT RightHandMiddle2
										{
											OFFSET -6.17441 0.00000 0.00000
											CHANNELS 3 Zrotation Xrotation Yrotation
											JOINT RightHandMiddle3
											{
												OFFSET -3.56743 0.00000 0.00000
												CHANNELS 3 Zrotation Xrotation Yrotation
												End site
												{
													OFFSET 0.00000 0.00000 0.00000
												}
											}
										}
									}
									JOINT RightHandRing1
									{
										OFFSET -12.69180 0.00000 -3.06433
										CHANNELS 3 Zrotation Xrotation Yrotation
										JOINT RightHandRing2
										{
											OFFSET -5.62556 0.00000 0.00000
											CHANNELS 3 Zrotation Xrotation Yrotation
											JOINT RightHandRing3
											{
												OFFSET -3.56744 0.00000 0.00000
												CHANNELS 3 Zrotation Xrotation Yrotation
												End site
												{
													OFFSET 0.00000 0.00000 0.00000
												}
											}
										}
									}
									JOINT RightHandPinky1
									{
										OFFSET -11.11390 0.00000 -6.03719
										CHANNELS 3 Zrotation Xrotation Yrotation
										JOINT RightHandPinky2
										{
											OFFSET -4.52789 0.00000 0.00000
											CHANNELS 3 Zrotation Xrotation Yrotation
											JOINT RightHandPinky3
											{
												OFFSET -2.46976 0.00000 0.00000
												CHANNELS 3 Zrotation Xrotation Yrotation
												End site
												{
													OFFSET 0.00000 0.00000 0.00000
												}
											}
										}
									}
								}
							}
						}
					}
					JOINT LeftShoulder
					{
						OFFSET 0.01000 7.91373 5.19711
						CHANNELS 3 Zrotation Xrotation Yrotation
						JOINT LeftArm
						{
							OFFSET 18.41580 0.00000 0.00000
							CHANNELS 3 Zrotation Xrotation Yrotation
							JOINT LeftForeArm
							{
								OFFSET 29.11090 0.00000 0.00000
								CHANNELS 3 Zrotation Xrotation Yrotation
								JOINT LeftHand
								{
									OFFSET 24.65040 0.00000 0.00000
									CHANNELS 3 Zrotation Xrotation Yrotation
									JOINT LeftHandThumb1
									{
										OFFSET 5.35114 -0.85590 3.97906
										CHANNELS 3 Zrotation Xrotation Yrotation
										JOINT LeftHandThumb2
										{
											OFFSET 4.52789 0.00000 0.00000
											CHANNELS 3 Zrotation Xrotation Yrotation
											JOINT LeftHandThumb3
											{
												OFFSET 2.46977 0.00000 0.00000
												CHANNELS 3 Zrotation Xrotation Yrotation
												End site
												{
													OFFSET 0.00000 0.00000 0.00000
												}
											}
										}
									}
									JOINT LeftHandIndex1
									{
										OFFSET 14.26970 0.00000 2.88139
										CHANNELS 3 Zrotation Xrotation Yrotation
										JOINT LeftHandIndex2
										{
											OFFSET 5.48836 0.00000 0.00000
											CHANNELS 3 Zrotation Xrotation Yrotation
											JOINT LeftHandIndex3
											{
												OFFSET 3.01859 0.00000 0.00000
												CHANNELS 3 Zrotation Xrotation Yrotation
												End site
												{
													OFFSET 0.00000 0.00000 0.00000
												}
											}
										}
									}
									JOINT LeftHandMiddle1
									{
										OFFSET 14.26970 0.00000 -0.09147
										CHANNELS 3 Zrotation Xrotation Yrotation
										JOINT LeftHandMiddle2
										{
											OFFSET 6.17440 0.00000 0.00000
											CHANNELS 3 Zrotation Xrotation Yrotation
											JOINT LeftHandMiddle3
											{
												OFFSET 3.56744 0.00000 0.00000
												CHANNELS 3 Zrotation Xrotation Yrotation
												End site
												{
													OFFSET 0.00000 0.00000 0.00000
												}
											}
										}
									}
									JOINT LeftHandRing1
									{
										OFFSET 12.69180 0.00000 -3.06433
										CHANNELS 3 Zrotation Xrotation Yrotation
										JOINT LeftHandRing2
										{
											OFFSET 5.62556 0.00000 0.00000
											CHANNELS 3 Zrotation Xrotation Yrotation
											JOINT LeftHandRing3
											{
												OFFSET 3.56744 0.00000 0.00000
												CHANNELS 3 Zrotation Xrotation Yrotation
												End site
												{
													OFFSET 0.00000 0.00000 0.00000
												}
											}
										}
									}
									JOINT LeftHandPinky1
									{
										OFFSET 11.11390 0.00000 -6.03719
										CHANNELS 3 Zrotation Xrotation Yrotation
										JOINT LeftHandPinky2
										{
											OFFSET 4.52789 0.00000 0.00000
											CHANNELS 3 Zrotation Xrotation Yrotation
											JOINT LeftHandPinky3
											{
												OFFSET 2.46976 0.00000 0.00000
												CHANNELS 3 Zrotation Xrotation Yrotation
												End site
												{
													OFFSET 0.00000 0.00000 0.00000
												}
											}
										}
									}
								}
							}
						}
					}
					JOINT pCube4
					{
						OFFSET 0.00000 10.91090 1.10792
						CHANNELS 3 Zrotation Xrotation Yrotation
						End site
						{
							OFFSET 0.00000 0.00000 0.00000
						}
					}
				}
			}
		}
	}
	JOINT RightUpLeg
	{
		OFFSET -9.98441 0.00000 0.00000
		CHANNELS 3 Zrotation Xrotation Yrotation
		JOINT RightLeg
		{
			OFFSET 0.00000 -42.11790 0.00000
			CHANNELS 3 Zrotation Xrotation Yrotation
			JOINT RightFoot
			{
				OFFSET 0.00000 -45.00020 -0.00001
				CHANNELS 3 Zrotation Xrotation Yrotation
				JOINT RightForeFoot
				{
					OFFSET 0.00000 -3.74820 0.00000
					CHANNELS 3 Zrotation Xrotation Yrotation
					JOINT RightToeBase
					{
						OFFSET 0.00000 0.06325 14.43120
						CHANNELS 3 Zrotation Xrotation Yrotation
						End site
						{
							OFFSET 0.00000 0.00000 0.00000
						}
					}
				}
			}
		}
	}
	JOINT LeftUpLeg
	{
		OFFSET 9.98441 0.00000 0.00000
		CHANNELS 3 Zrotation Xrotation Yrotation
		JOINT LeftLeg
		{
			OFFSET 0.00000 -42.11800 0.00000
			CHANNELS 3 Zrotation Xrotation Yrotation
			JOINT LeftFoot
			{
				OFFSET 0.00000 -45.00070 0.00000
				CHANNELS 3 Zrotation Xrotation Yrotation
				JOINT LeftForeFoot
				{
					OFFSET 0.00000 -3.74824 0.00000
					CHANNELS 3 Zrotation Xrotation Yrotation
					JOINT LeftToeBase
					{
						OFFSET 0.00000 0.06325 14.43110
						CHANNELS 3 Zrotation Xrotation Yrotation
						End site
						{
							OFFSET 0.00000 0.00000 0.00000
						}
					}
				}
			}
		}
	}
}
MOTION
Frames: 4
Frame Time: 0.050000
0.03618388969189779 -0.04937806439244814 0.02438006841040397 -0.02481313648137214 -0.03780287373419682 0.029885006054683097 -2.442522663784396 1.8496258994310992 -0.7640258787757417 -0.9355573637749933 3.662224828599475 0.4066026223683662 -1.176450088114595 -1.661400935776714 -0.0683168684798944 -0.3397472751340445 -0.022022490041741255 -0.6772232584045844 -0.20069720160352647 12.765119475097501 0.21056524506185342 -0.17781547682137944 0.17171045398966536 -2.196682076788074 -0.18391133764245457 -14.516857710449278 -0.0799549812797071 -5.613715171141033 2.099942361492309 -13.174890651724349 61.82061435415382 0.3474822333671661 26.180545962067644 0.4907167473331979 -2.9612324417912435 99.24683843683088 9.805194705678687 -0.337037867991307 -0.6305132746310826 4.535687308893644 -0.16437531829723373 -1.5900189935270261 0.04505421634300904 0.021475750285745776 -56.21076977651211 0.0002219733523164437 0.028447045133715244 -56.19730768733609 -38.785443470415885 0.039185966951502935 -0.04840978550949512 -0.03502061501100733 0.01319745455429789 0.019747962476555216 0.03846773781510777 0.041387721776142125 -0.048812267346673786 -36.65171347812337 -0.03643056288422073 0.02894666215124123 0.007101191824210887 0.004474588957215142 0.0005590372813796771 0.045867534427761814 0.04582871102497549 0.031781022419120473 -19.78896670896055 0.017822249163455928 0.048229578810834464 -0.003829465702252322 0.03555797547826969 0.028582799716974028 -0.041612437528455254 0.00016335073086698053 -0.003704668430304145 24.065811168046334 0.01398304267569368 -0.037270291879511676 28.880511952735002 -0.029105699836947392 -0.005885224579406598 28.913206339376025 0.046265843345897714 0.027775256328443645 6.228048095835423 1.5090794021445664 12.475491661324911 -63.74068846808243 13.658467667663205 -19.511149662436583 -3.6248535695947735 -7.783072312848129 -85.6680903864384 -3.5688468705080743 1.684490307842629 -2.9835359476413257 -0.4643987565223741 0.1005618930262124 -8.074903612007754 -0.004851672112345243 -0.015991130127622905 44.594488027893924 0.04572416708491502 0.022412064449805945 44.59627501767201 12.469694961777293 -0.021819551653073574 -0.005519655922698865 0.03847230513009043 0.024737610247791926 -0.024121573826670396 -0.042391329849535433 0.0019641400645047926 0.008627574455146687 11.105743211777991 -0.0024752154315418992 -0.01236251636253674 -0.031051451497958384 -0.03753549291458635 0.0045086677207496016 -0.04983906365154362 0.006679144318618882 0.026485116722957378 4.779006203239298 0.04750592033010565 -0.017911556482585703 -0.01840507411936775 -0.009315850480083277 -0.0050199223829466115 0.006392397663941812 0.009729994741716546 -0.004793449861889404 -5.628099314262885 -0.033822978453096675 0.016107211817583917 -6.707425540913195 -0.01466937273514686 -0.015839012562113185 -6.729376103033324 0.015245212874665964 0.04879151920761011 0.01625702115706673 -0.03387989348574573 -0.013865694928312435 8.014603386375128 3.509318032550116 -19.19860472377128 0.0016704981514067648 10.396835928033333 0.021506543270817746 -5.581990799756411 -15.686901641376881 3.211377460737048 0.014543272127009356 0.01734436651533317 0.0076259253661908775 0.013974279935222786 4.689978429379998 -0.01686542937795537 12.476560607193582 -8.212018405386479 6.853877685419504 -0.0009846949742288 46.41617937185391 -0.013690256656918313 -4.2992103948095 -14.738490087393203 -3.8460757745409477 -0.006149454414811874 0.006127056694379224 0.03275828161370414 -0.02143980641347277 -10.71949289756627 -0.015132356396612626 
0.04663489081898416 -0.04030976314672327 -0.04253686887691121 0.04556048262324308 -0.029041623343466695 0.014470998997810217 -2.5834351231160704 2.2753276165070635 -0.7942182502862543 -0.9149629456176812 3.6462775099803815 0.40373892118446375 -1.1883904097161575 -1.4809350060217823 -0.11075708903133596 -0.36873779197856904 0.06298868693227996 -0.6919513162087015 -0.2852430926227543 12.520626482558287 0.31298513694903074 -0.23357248649269072 0.07727350855333101 -2.1529855656139185 -0.237041433422074 -14.674476644168264 -0.09680433588672933 -4.997458226981924 1.9634423834022614 -12.878744628141302 61.9409501828075 0.7619276967301906 25.64094062164618 1.2169727617413424 -2.1072329825243385 97.34022312879338 10.469980085436644 -0.3356309822779726 -0.9974922706655337 4.5188882170853635 -0.14457606186078284 -1.631197476443705 -0.04601250892145233 -0.01730607555858885 -56.23766035319761 -0.0030248736348934767 0.0367083976817427 -56.264434768828025 -38.72339544882565 -0.03156384335453116 0.03382805035460943 -0.015164333067724807 -0.006387025855481501 -0.008953599029912843 -0.039932542784870115 -0.0025944015177596686 -0.036699079711397874 -36.6640501607494 0.025156846692515653 0.01357101640278319 0.03303520726770809 0.008260005557142645 -0.043570740176040346 0.04679970876686914 -0.01788094116694891 0.02381603774007131 -19.80154856384513 -0.04152771737024089 0.03655960644654118 -0.0220666835843001 -0.014166965276060187 -0.005199719116973274 -0.002130004987859043 -0.0021402455283296724 0.04223496650082474 24.082512779561277 0.012147504473762538 -0.02741220171157686 28.830411529099692 -0.044108668444468174 -0.00422130676854998 28.87650687369655 -0.006936434721677599 -0.025161444161374752 5.858737531357103 1.4233462247059399 12.290462607096954 -62.898236664409744 13.507578035500735 -20.765264691683463 -3.841182427559945 -6.785965982198632 -86.68108392911218 -4.08030556925664 1.556363702136471 -2.9750645625946075 -0.47227019822654354 0.09318831858022154 -8.145806915947674 0.02574794437150025 -0.009343439095427897 44.56902381271475 -0.00826073292874045 0.016030816328241833 44.56262083543384 12.461451960239787 0.009067955155807083 0.0057302374987682056 -0.0014951029355732021 -0.034041294393340915 -0.03857878601387171 0.012470175297946435 0.008728403986229441 -0.018152296397677768 11.11110630804459 -0.007748891110350861 -0.01062232312751439 -0.007716187008357245 0.00880660303466384 0.001362886248859233 0.002774996945957092 0.031444100795477097 0.04986429706301275 4.753354527483062 0.0029010584226209107 0.012958483078074418 0.048068995486849064 -0.008109346902117247 -0.048131167349719686 0.029326861383207566 -0.030165310564660812 0.024828054019941256 -5.6125515946015705 0.025043290776447735 -0.010459098252523329 -6.716919626423358 -0.028256523150958328 0.03383357936051514 -6.67145981427651 0.004445157339446197 0.04289343712907185 0.01300527118597071 -0.047893058100776834 0.021961530811392637 8.089645459586938 3.5331378356942964 -19.207275969730016 0.0014436177468603137 10.375496565208012 0.007093110325559625 -5.594991389936344 -15.64129500088795 3.207805687077089 0.031901613654730515 0.004904535317196719 0.03053884996693367 -0.016609216157813425 4.671674114560894 0.037191581395650944 12.42026419499146 -8.21428410360585 6.842388610586855 -0.02097659715273944 46.337903749382505 -0.022158752764190354 -4.27531686213767 -14.761394552355558 -3.8591169265549543 0.04259673262398731 -0.03227500428799769 -0.02351275505917175 0.019519705052317402 -10.728427534687938 0.009161994907100384 
0.02564737474244702 0.010971331413950283 -0.03955064675251545 0.0432993150804001 -0.01388781556378966 0.02642698355631516 -2.776552477109187 2.922628411995131 -0.6985566039836116 -1.0047255301752434 3.635842003230925 0.3698143923035605 -1.1284501972350192 -1.2377285638382514 -0.1928027597789319 -0.29829389741961226 0.10880396055253619 -0.696475801299301 -0.35630795928181136 12.05930915360827 0.3290304520325198 -0.2808878932838597 -0.1395940653955816 -2.277784853068946 -0.296860894938687 -14.78955787835933 -0.10583630993275908 -4.119662427454881 1.7725771433244408 -12.65508267896573 62.09766405703653 1.9607087241828203 24.867464221326955 1.6714877922214266 -1.148316057337583 94.79203212574208 11.456194400057422 -0.3678356355569275 -1.7333035115076452 4.519203853655321 -0.08989728986043002 -1.6019629403461861 0.02240708172903557 0.012827668645379159 -56.25895217095527 -0.026294725528187422 0.036507664877172434 -56.19888322116888 -38.80030975639626 -0.025590843541320425 -0.008720969715854463 -0.02624522754436885 -0.037926090137944464 0.019715793907701708 -0.032382358530588934 -0.03376774136684278 -0.030530608973334455 -36.72419775683191 0.00493934067760628 0.02236186965286702 -0.02156298560828145 0.008910158957261202 -0.003208129775051464 0.031057872695604512 0.02527913759100123 -0.009978720108337351 -19.723184598645233 -0.022241453481236472 0.015707737916247244 -0.022610191625504726 0.047307902553440216 0.0038310940415223443 0.020167615469246565 0.019232202934735886 -0.048585649719616854 24.04003273348722 0.017018827652480428 0.03195849419701202 28.83644438064668 -0.044140540162107715 0.037955640476587525 28.819422461914442 0.004779138268909333 0.00902042249947073 5.0966545194436055 1.3425391114369976 12.114839590292679 -62.09649099465504 14.094604122220844 -21.39122789537549 -3.4029296998431837 -6.09835041678499 -86.61902597440611 -4.867451584511595 1.5413235127400737 -2.785131570161843 -0.43515590231354534 0.037412843957294675 -8.111927157169998 0.03257346437144942 0.0005289006346342491 44.59687963487043 -0.04032181885983811 -0.016668500753007062 44.59715085247048 12.416869100580396 0.04655347803484515 -0.012674835211680587 -0.029838190558735593 -0.04438835839707126 -0.03624585939957219 -0.04813261132626523 -0.0004572325416329984 0.009495421642471497 11.127494154179402 -0.0016918362610968975 -0.0008052449960566172 0.007530672728517703 -0.04815398692409249 0.0364779986495798 -0.04172933020602233 0.01765669998988298 0.04791589250944925 4.787393013298589 0.04696543404684323 -0.013194727437608746 0.04100869448404976 0.015530963774370852 -0.01817430404289718 0.006118223366658463 0.006347033755535009 0.019395146233022253 -5.632987432960314 -0.032491781538407066 0.003552777771977448 -6.711485273341165 0.01766521157022706 0.004257036142125965 -6.756470227777871 -0.006934519898459802 -0.020137464110690506 0.017642098318805314 0.03991279620467516 -0.003503477657426806 8.051834270358226 3.4726701018119854 -19.2278892088089 -0.03977776799591918 10.361092859835837 0.02389206917105091 -5.582164908280675 -15.667619844025714 3.2008743809520723 -0.030692032854815796 -0.028762524858282425 -0.030869731634505935 0.04880820506760206 4.7080712950024095 0.023173269487537666 12.497424224452098 -8.253467040438435 6.858716452379038 -0.01831213914740196 46.413506347161906 -0.007089168050646372 -4.372548009874722 -14.784617162739453 -3.853052455835818 -0.012965568086023517 0.04271240491516841 0.006332436676893083 -0.03391624251302723 -10.755891357427334 0.04746580922034807 
-0.0010966209363232244 -0.03605357279063613 0.022550700276782576 0.016259184062013238 -0.01663461951837025 0.02321571783907922 -3.259257966530881 3.742452770406402 -0.6787991935263241 -1.0071176196733254 3.6424276905109143 0.44211022054551413 -1.108970382210813 -0.948962920318969 -0.2510575935413371 -0.21626279747551735 0.2931897508944006 -0.7688944690514141 -0.3780752009595684 11.565177394025556 0.2522354691163894 -0.3404253357658166 -0.3269015642737603 -2.593245295232459 -0.32579071360834283 -14.958862320521856 -0.12045610797401482 -2.9690059098738955 1.4561308463392426 -12.317008439682287 61.770398852345636 3.392995877016591 24.549863552319945 1.7931887586383228 -0.14357301997993474 92.41365351264291 12.670362370730182 -0.4194993961716477 -2.549494534424963 4.495212457405332 -0.14495649274953193 -1.593229527840141 0.000586444437744574 -0.04331815507471454 -56.27416722409065 0.03669550113199906 -0.019204106859947653 -56.20339650788344 -38.80235000758853 0.013817375242344264 -0.006966479127461994 -0.046059984987757804 0.03577899725673486 -0.006415558757561721 -0.01551262622070303 -0.002512844979155411 -0.00029099505112053706 -36.66654145893673 -0.025831251207231423 -0.02878681266106515 -0.010965591879229856 -0.03456265236866114 -0.019241778247504775 0.031627485023690144 -0.048423371224696074 -0.019281456272124145 -19.72546844601984 -0.047804643549354583 -0.04700216715894181 -0.009810848207147036 0.012986874411419233 0.03493490568438521 0.020875127928500936 0.027417217867312153 -0.030140974037463825 24.06566554455879 -0.029208673026809566 0.010168892763333097 28.90929306848034 -0.025391192301937388 0.0067556727869615375 28.82514501721374 -0.048435301120632566 -0.04613620867553836 3.9164056391337265 1.174446912481012 11.843354122075134 -60.90667794975025 15.06801081338853 -21.79873912414262 -2.4725063264996683 -5.594469803343836 -85.69117436597139 -5.759151737258275 1.505260125908157 -2.436523746561348 -0.4678563905406488 0.10574435073626448 -8.091210826667574 0.03649668384160142 0.0036371684468380384 44.56871131038391 0.03178191111024213 0.015223079581593135 44.584925984158815 12.451406006361143 0.002223365424078835 0.03689331193271964 0.027710092605851156 0.006575983382446333 -0.031780128709663846 -0.03462741468279262 -0.014534571015402864 -0.04072374440434894 11.12093217103849 -0.013790700341693048 -0.032499466752650696 -0.03404963967266426 -0.008173748814322411 -0.00010687746635477642 -0.04002654472322477 -0.03066887914338268 0.03382344651025247 4.81703108579549 0.031612513045856765 0.0067467115212477115 -0.046293021670388665 0.002526732926928175 -0.03687931272776357 -0.0031441439328712536 -0.04203909358594587 -0.007492356205796283 -5.566983482058048 0.0028390400111448044 -0.04773050762444434 -6.699439443758631 0.0035302025836218653 -0.04923854804024587 -6.674260178225249 0.04308930581151641 -0.03462267596586946 0.013826710271864238 -0.011051761187370687 -0.033452890812003755 8.03868610220029 3.4529527082819853 -19.253850495308733 0.036790988401636054 10.360605907921212 -0.010955165268805734 -5.663028234200981 -15.705474678428047 3.222415108535847 0.009838646524536363 0.008420834106726584 -0.010612081515116317 -0.014129930214016657 4.65136628016589 -0.009813680559553605 12.500616148065685 -8.244527446779914 6.930234892770738 0.010721946451406991 46.36549223290046 -0.004932265144950949 -4.372461005326755 -14.708250908482635 -3.842446385682157 0.015066242753570358 0.004201008736499436 -0.04645640467870472 0.04913269231942774 -10.783359532748447 -0.015732788004026537 
